<svg version="1.1" class="enlivenem" id="Layer_1" xmlns="http://www.w3.org/2000/svg" xmlns:xlink="http://www.w3.org/1999/xlink" x="0px" y="0px" viewBox="0 0 800 600" style="enable-background:new 0 0 800 600;" xml:space="preserve" data-global-elvn="enableViewport, enableClick, none, startInvisible, responsive, 0, notLoop, 500">
<style type="text/css">
	.st0{fill:#6CB33F;}
	.st1{fill:#282829;}
</style>
<polygon class="st0 elvn-layer" points="205.9,339.3 178.4,297.3 192.8,297.3 212.1,327.9 231.7,297.3 245.7,297.3 218.2,339 218.2,366.6 
	205.9,366.6 " data-elvn="expandR, in, 0, 200, linear"/>
<g data-elvn="expandR, in, 0, 200, linear" class="elvn-layer" xmlns="http://www.w3.org/2000/svg">
	<path class="st0" d="M305.8,332.1v-0.2c0-13.5-9.8-24.6-23.6-24.6c-13.8,0-23.4,11-23.4,24.5v0.2c0,13.5,9.8,24.6,23.6,24.6
		C296.2,356.5,305.8,345.6,305.8,332.1 M246.1,332.1v-0.2c0-19.5,15-35.8,36.3-35.8c21.3,0,36.1,16.1,36.1,35.6v0.2
		c0,19.5-15,35.8-36.3,35.8C260.9,367.8,246.1,351.6,246.1,332.1"></path>
	<path class="st0" d="M330.9,337.2v-39.9h12.2v39.4c0,12.9,6.6,19.7,17.5,19.7c10.8,0,17.4-6.4,17.4-19.2v-39.9h12.2v39.3
		c0,20.7-11.7,31.1-29.8,31.1C342.4,367.7,330.9,357.3,330.9,337.2"></path>
	<path class="st0" d="M435.7,331.6c8.7,0,14.3-4.6,14.3-11.6v-0.2c0-7.4-5.3-11.5-14.4-11.5h-17.7v23.3H435.7z M405.7,297.3h30.9
		c8.7,0,15.5,2.6,20,6.9c3.7,3.8,5.7,8.9,5.7,14.9v0.2c0,11.4-6.8,18.2-16.4,21l18.7,26.2h-14.4l-17-24.2h-15.2v24.2h-12.2V297.3z"></path>
</g>
<polygon class="st0 elvn-layer" points="504.4,297.3 516.5,297.3 516.5,326.1 549.6,326.1 549.6,297.3 561.8,297.3 561.8,366.6 549.6,366.6 
	549.6,337.4 516.5,337.4 516.5,366.6 504.4,366.6 " data-elvn="expandR, in, 0, 200, linear"/>
<g data-elvn="expandR, in, 0, 550, linear" class="elvn-layer" xmlns="http://www.w3.org/2000/svg">
	<path class="st0" d="M634.9,332.1v-0.2c0-13.5-9.8-24.6-23.6-24.6c-13.8,0-23.4,11-23.4,24.5v0.2c0,13.5,9.8,24.6,23.6,24.6
		S634.9,345.6,634.9,332.1 M575.3,332.1v-0.2c0-19.5,15-35.8,36.3-35.8c21.3,0,36.1,16.1,36.1,35.6v0.2c0,19.5-15,35.8-36.3,35.8
		C590.1,367.8,575.3,351.6,575.3,332.1"></path>
</g>
<polygon class="st0 elvn-layer" points="661.2,297.3 674.2,297.3 695.2,330.1 716.3,297.3 729.3,297.3 729.3,366.6 717.1,366.6 717.1,316.9 
	695.2,349.6 694.8,349.6 673.2,317.1 673.2,366.6 661.2,366.6 " data-elvn="expandR, in, 0, 200, linear"/>
<polygon class="st0 elvn-layer" points="745.8,297.3 797.2,297.3 797.2,308.2 758,308.2 758,326.2 792.8,326.2 792.8,337.1 758,337.1 
	758,355.7 797.7,355.7 797.7,366.6 745.8,366.6 " data-elvn="expandR, in, 0, 200, linear"/>
<g data-elvn="pulse, in, 500, 500, linear" class="elvn-layer" xmlns="http://www.w3.org/2000/svg">
	<path d="M180.1,402.3l3-3.3c1.2,1.3,2.4,2.1,3.9,2.1c1.8,0,2.9-1.1,2.9-3.5v-13.8h4.8v14c0,2.5-0.7,4.4-2,5.7c-1.3,1.3-3.2,2-5.5,2
		C183.8,405.5,181.6,404.1,180.1,402.3z"></path>
	<path d="M200,396.1v-12.2h4.7v12.1c0,3.5,1.7,5.3,4.6,5.3c2.9,0,4.6-1.7,4.6-5.1v-12.2h4.7v12c0,6.5-3.6,9.6-9.4,9.6
		C203.5,405.6,200,402.3,200,396.1z"></path>
	<path d="M222.8,402.1l2.8-3.3c1.9,1.6,3.9,2.6,6.4,2.6c1.9,0,3.1-0.8,3.1-2v-0.1c0-1.2-0.7-1.8-4.3-2.7c-4.3-1.1-7.1-2.3-7.1-6.5
		V390c0-3.9,3.1-6.4,7.5-6.4c3.1,0,5.8,1,7.9,2.7l-2.4,3.5c-1.9-1.3-3.7-2.1-5.6-2.1c-1.8,0-2.7,0.8-2.7,1.9v0.1
		c0,1.4,0.9,1.9,4.6,2.8c4.3,1.1,6.8,2.7,6.8,6.4v0.1c0,4.2-3.2,6.6-7.8,6.6C228.6,405.5,225.4,404.4,222.8,402.1z"></path>
	<path d="M249.2,388.2h-6.5v-4.3h17.7v4.3h-6.5v17h-4.7V388.2z"></path>
	<path d="M273.9,394.6L273.9,394.6c0-6.1,4.8-11.1,11.4-11.1c6.6,0,11.3,4.9,11.3,11v0.1c0,6.1-4.8,11-11.4,11
		C278.6,405.6,273.9,400.7,273.9,394.6z M291.7,394.6L291.7,394.6c0-3.7-2.7-6.8-6.5-6.8c-3.8,0-6.4,3-6.4,6.7v0.1
		c0,3.7,2.7,6.7,6.5,6.7C289,401.3,291.7,398.3,291.7,394.6z"></path>
	<path d="M301.6,383.9h4.3l10,13.1v-13.1h4.6v21.3h-4l-10.3-13.6v13.6h-4.6V383.9z"></path>
	<path d="M326.6,383.9h16.1v4.2h-11.4v4.3h10.1v4.2h-10.1v4.5h11.6v4.2h-16.3V383.9z"></path>
	<path d="M357,394.6L357,394.6c0-6.1,4.6-11.1,11.1-11.1c4,0,6.4,1.3,8.4,3.3l-3,3.4c-1.6-1.5-3.3-2.4-5.5-2.4c-3.6,0-6.2,3-6.2,6.7
		v0.1c0,3.7,2.5,6.7,6.2,6.7c2.4,0,3.9-1,5.6-2.5l3,3c-2.2,2.3-4.6,3.8-8.8,3.8C361.6,405.6,357,400.7,357,394.6z"></path>
	<path d="M388.6,383.7h4.3l9.2,21.5h-4.9l-2-4.8h-9l-1.9,4.8h-4.8L388.6,383.7z M393.5,396.3l-2.8-6.9l-2.8,6.9H393.5z"></path>
	<path d="M406.2,383.9h4.7v17.1h10.6v4.3h-15.3V383.9z"></path>
	<path d="M426,383.9h4.7v17.1h10.6v4.3H426V383.9z"></path>
	<path d="M460.7,388.2h-6.5v-4.3h17.7v4.3h-6.5v17h-4.7V388.2z"></path>
	<path d="M474.5,394.6L474.5,394.6c0-6.1,4.8-11.1,11.4-11.1c6.6,0,11.3,4.9,11.3,11v0.1c0,6.1-4.8,11-11.4,11
		C479.2,405.6,474.5,400.7,474.5,394.6z M492.3,394.6L492.3,394.6c0-3.7-2.7-6.8-6.5-6.8c-3.8,0-6.4,3-6.4,6.7v0.1
		c0,3.7,2.7,6.7,6.5,6.7C489.7,401.3,492.3,398.3,492.3,394.6z"></path>
	<path d="M511.3,394.6L511.3,394.6c0-6.1,4.6-11.1,11.1-11.1c4,0,6.4,1.3,8.4,3.3l-3,3.4c-1.6-1.5-3.3-2.4-5.5-2.4
		c-3.6,0-6.2,3-6.2,6.7v0.1c0,3.7,2.5,6.7,6.2,6.7c2.4,0,3.9-1,5.6-2.5l3,3c-2.2,2.3-4.6,3.8-8.8,3.8
		C516,405.6,511.3,400.7,511.3,394.6z"></path>
	<path d="M534.1,394.6L534.1,394.6c0-6.1,4.8-11.1,11.4-11.1c6.6,0,11.3,4.9,11.3,11v0.1c0,6.1-4.8,11-11.4,11
		C538.8,405.6,534.1,400.7,534.1,394.6z M551.9,394.6L551.9,394.6c0-3.7-2.7-6.8-6.5-6.8c-3.8,0-6.4,3-6.4,6.7v0.1
		c0,3.7,2.7,6.7,6.5,6.7C549.3,401.3,551.9,398.3,551.9,394.6z"></path>
	<path d="M561.8,383.9h4.3l10,13.1v-13.1h4.6v21.3h-4l-10.3-13.6v13.6h-4.6V383.9z"></path>
	<path d="M586.8,383.9h4.3l10,13.1v-13.1h4.6v21.3h-4l-10.3-13.6v13.6h-4.6V383.9z"></path>
	<path d="M611.8,383.9h16.1v4.2h-11.4v4.3h10.1v4.2h-10.1v4.5H628v4.2h-16.3V383.9z"></path>
	<path d="M632.1,394.6L632.1,394.6c0-6.1,4.6-11.1,11.1-11.1c4,0,6.4,1.3,8.4,3.3l-3,3.4c-1.6-1.5-3.3-2.4-5.5-2.4
		c-3.6,0-6.2,3-6.2,6.7v0.1c0,3.7,2.5,6.7,6.2,6.7c2.4,0,3.9-1,5.6-2.5l3,3c-2.2,2.3-4.6,3.8-8.8,3.8
		C636.8,405.6,632.1,400.7,632.1,394.6z"></path>
	<path d="M661.4,388.2h-6.5v-4.3h17.7v4.3h-6.5v17h-4.7V388.2z"></path>
	<path d="M687.3,383.9h4.7v21.3h-4.7V383.9z"></path>
	<path d="M703.2,388.2h-6.5v-4.3h17.7v4.3h-6.5v17h-4.7V388.2z"></path>
</g>
<g data-elvn="scaleT, in, 0, 450, linear" class="elvn-layer" xmlns="http://www.w3.org/2000/svg">
	<path class="st1" d="M178.6,239v-0.2c0-25.5,19.5-45.5,46-45.5c17.9,0,29.4,7.5,37.1,18.1l-18.2,14.1c-5-6.1-10.8-10.2-19.1-10.2
		c-12.3,0-20.9,10.5-20.9,23.2v0.3c0,13.1,8.6,23.4,20.9,23.4c9.1,0,14.5-4.2,19.7-10.6l18.2,13c-8.3,11.4-19.4,19.7-38.6,19.7
		C198.8,284.3,178.6,265.1,178.6,239"></path>
	<path class="st1" d="M334.8,239v-0.2c0-12.8-9-23.6-22.4-23.6c-13.4,0-22.2,10.8-22.2,23.4v0.3c0,12.6,9.1,23.6,22.5,23.6
		C325.9,262.4,334.8,251.6,334.8,239 M265.4,239v-0.2c0-25.1,20.3-45.5,47.2-45.5c27,0,47,20.1,47,45.2v0.3
		c0,25.1-20.2,45.5-47.3,45.5C285.4,284.3,265.4,264.1,265.4,239"></path>
</g>
<polygon class="st1 elvn-layer" points="367.3,195 390,195 426,241.3 426,195 450,195 450,282.5 428.8,282.5 391.3,234.5 391.3,282.5 
	367.3,282.5 " data-elvn="scaleT, in, 0, 450, linear"/>
<polygon class="st1 elvn-layer" points="460.7,195 483.1,195 519.1,241.3 519.1,195 543.1,195 543.1,282.5 522,282.5 484.5,234.5 484.5,282.5 
	460.7,282.5 " data-elvn="scaleT, in, 0, 500, linear"/>
<polygon class="st1 elvn-layer" points="553.8,195 624.1,195 624.1,215.5 577.8,215.5 577.8,228.9 619.8,228.9 619.8,248 577.8,248 
	577.8,261.9 624.7,261.9 624.7,282.5 553.8,282.5 " data-elvn="scaleT, in, 0, 600, linear"/>
<g data-elvn="scaleT, in, 0, 450, linear" class="elvn-layer" xmlns="http://www.w3.org/2000/svg">
	<path class="st1 elvn-layer" d="M630.4,239v-0.2c0-25.5,19.5-45.5,46-45.5c17.9,0,29.4,7.5,37.1,18.1l-18.2,14.1c-5-6.1-10.8-10.2-19.1-10.2
		c-12.2,0-20.9,10.5-20.9,23.2v0.3c0,13.1,8.6,23.4,20.9,23.4c9.1,0,14.5-4.2,19.8-10.6l18.2,13c-8.3,11.4-19.4,19.7-38.6,19.7
		C650.5,284.3,630.4,265.1,630.4,239" data-elvn="expandR, in, 0, 200, linear"></path>
</g>
<polygon class="st1 elvn-layer" points="745.7,216.3 719.6,216.3 719.6,195 796.2,195 796.2,216.3 770,216.3 770,282.5 745.7,282.5 " data-elvn="scaleT, in, 0, 650, linear"/>
<path class="st1 elvn-layer" d="M92.1,275.4h12.9v44.9H92.1V275.4z M53.7,320.2H40.8v-44.9h12.9V320.2z M12.6,252.1v101.8h120.6V252.1L73,209.8
	L12.6,252.1z M92.1,275.4h12.9v44.9H92.1V275.4z M53.7,320.2H40.8v-44.9h12.9V320.2z M12.6,252.1v101.8h120.6V252.1L73,209.8
	L12.6,252.1z M145.8,366.5H0v-121l73-51.1l72.8,51.1V366.5z M145.8,366.5H0v-121l73-51.1l72.8,51.1V366.5z" data-elvn="fadeLongB, in, 750, 1050, backout"/>
<path class="st1 elvn-layer" d="M736.1,383.7h4.3l9.1,21.5h-4.9l-1.9-4.8h-9l-2,4.8h-4.8L736.1,383.7z M741,396.3l-2.8-6.9l-2.8,6.9H741z" data-elvn="fade, in, 1000, 200, linear"/>
<path class="st1 elvn-layer" d="M753.7,383.9h4.7v17.1H769v4.3h-15.3V383.9z" data-elvn="fade, in, 1000, 200, linear"/>
<path class="st1 elvn-layer" d="M773.5,383.9h4.7v17.1h10.6v4.3h-15.3V383.9z" data-elvn="fade, in, 1000, 200, linear"/>
<path class="st1 elvn-layer" d="M792.5,400.3h4.9v4.9h-4.9V400.3z" data-elvn="fade, in, 1000, 200, linear"/>
<g data-elvn="fadeShortB, in, 1000, 850, elastic" class="elvn-layer" xmlns="http://www.w3.org/2000/svg">
	<path class="st1" d="M792.1,388.3L792.1,388.3c0-1.6,1.2-2.8,2.9-2.8c1.1,0,1.8,0.4,2.3,1.1l-1.1,0.9c-0.3-0.4-0.7-0.6-1.2-0.6
		c-0.7,0-1.3,0.6-1.3,1.4v0c0,0.8,0.5,1.4,1.3,1.4c0.6,0,0.9-0.3,1.2-0.7l1.2,0.8c-0.5,0.7-1.2,1.2-2.4,1.2
		C793.3,391,792.1,389.8,792.1,388.3z"></path>
</g>
<path class="st1 elvn-layer" d="M794.9,393.3c-2.8,0-5.1-2.3-5.1-5.1c0-2.8,2.3-5.1,5.1-5.1c2.8,0,5.1,2.3,5.1,5.1
	C800,391.1,797.7,393.3,794.9,393.3z M794.9,384.2c-2.2,0-4,1.8-4,4c0,2.2,1.8,4,4,4c2.2,0,4-1.8,4-4
	C799,386,797.1,384.2,794.9,384.2z" data-elvn="expandR, in, 1150, 200, linear"/>
</svg>